<svg id="SvgjsSvg1001" width="288" height="288" xmlns="http://www.w3.org/2000/svg" version="1.1" xmlns:xlink="http://www.w3.org/1999/xlink" xmlns:svgjs="http://svgjs.com/svgjs"><defs id="SvgjsDefs1002"></defs><g id="SvgjsG1008" transform="matrix(1,0,0,1,0,0)"><svg xmlns="http://www.w3.org/2000/svg" xmlns:xlink="http://www.w3.org/1999/xlink" width="288" height="288" viewBox="0 0 700 700"><defs><symbol id="l" overflow="visible"><path d="m3.125-0.78125h-1.7188l-0.26562 0.78125h-1.1094l1.5781-4.2656h1.3125l1.5781 4.2656h-1.0938zm-1.4375-0.79688h1.1719l-0.59375-1.6875z" fill="#ffffff" class="color000 svgShape"></path></symbol><symbol id="a" overflow="visible"><path d="m3.9219-0.23438c-0.19922 0.10547-0.40625 0.18359-0.625 0.23438s-0.44922 0.078125-0.6875 0.078125c-0.71094 0-1.2734-0.19531-1.6875-0.59375-0.41797-0.39453-0.625-0.92969-0.625-1.6094 0-0.6875 0.20703-1.2266 0.625-1.625 0.41406-0.39453 0.97656-0.59375 1.6875-0.59375 0.23828 0 0.46875 0.027344 0.6875 0.078125 0.21875 0.054687 0.42578 0.13281 0.625 0.23438v0.89062c-0.19922-0.14453-0.39844-0.25-0.59375-0.3125-0.19922-0.0625-0.41406-0.09375-0.64062-0.09375-0.38672 0-0.69531 0.125-0.92188 0.375-0.21875 0.25-0.32812 0.60156-0.32812 1.0469 0 0.4375 0.10938 0.78125 0.32812 1.0312 0.22656 0.25 0.53516 0.375 0.92188 0.375 0.22656 0 0.44141-0.03125 0.64062-0.09375 0.19531-0.0625 0.39453-0.16406 0.59375-0.3125z" fill="#ffffff" class="color000 svgShape"></path></symbol><symbol id="c" overflow="visible"><path d="m3.6875-1.6094v0.29688h-2.3906c0.019531 0.24219 0.10156 0.42188 0.25 0.54688 0.15625 0.11719 0.36719 0.17188 0.64062 0.17188 0.20703 0 0.42578-0.03125 0.65625-0.09375 0.22656-0.070312 0.46094-0.17188 0.70312-0.29688v0.79688c-0.25 0.085938-0.49609 0.14844-0.73438 0.1875-0.24219 0.050781-0.48438 0.078125-0.73438 0.078125-0.57422 0-1.0234-0.14453-1.3438-0.4375-0.32422-0.28906-0.48438-0.70312-0.48438-1.2344s0.15625-0.94141 0.46875-1.2344c0.32031-0.30078 0.75781-0.45312 1.3125-0.45312 0.5 0 0.89844 0.15234 1.2031 0.45312 0.30078 0.30469 0.45312 0.71094 0.45312 1.2188zm-1.0469-0.34375c0-0.19531-0.058594-0.35156-0.17188-0.46875-0.11719-0.11328-0.26562-0.17188-0.45312-0.17188-0.19922 0-0.35938 0.058594-0.48438 0.17188-0.11719 0.10547-0.1875 0.26172-0.21875 0.46875z" fill="#ffffff" class="color000 svgShape"></path></symbol><symbol id="d" overflow="visible"><path d="m1.9219-1.4375c-0.21094 0-0.37109 0.039062-0.48438 0.10938-0.10547 0.074219-0.15625 0.17969-0.15625 0.3125 0 0.13672 0.039062 0.24219 0.125 0.3125 0.09375 0.074219 0.21875 0.10938 0.375 0.10938 0.1875 0 0.34375-0.066406 0.46875-0.20312 0.13281-0.14453 0.20312-0.32031 0.20312-0.53125v-0.10938zm1.5781-0.39062v1.8281h-1.0469v-0.46875c-0.13672 0.1875-0.29297 0.32812-0.46875 0.42188-0.16797 0.082031-0.37109 0.125-0.60938 0.125-0.33594 0-0.60547-0.09375-0.8125-0.28125-0.21094-0.19531-0.3125-0.45312-0.3125-0.76562 0-0.375 0.12891-0.64453 0.39062-0.8125 0.25781-0.17578 0.66406-0.26562 1.2188-0.26562h0.59375v-0.078125c0-0.16406-0.0625-0.28516-0.1875-0.35938-0.125-0.070313-0.32422-0.10938-0.59375-0.10938-0.21875 0-0.42188 0.023438-0.60938 0.0625-0.1875 0.042969-0.36719 0.10547-0.53125 0.1875v-0.78125c0.21875-0.050781 0.4375-0.085938 0.65625-0.10938 0.22656-0.03125 0.45312-0.046875 0.67188-0.046875 0.57031 0 0.98828 0.11719 1.25 0.34375 0.25781 0.23047 0.39062 0.60156 0.39062 1.1094z" fill="#ffffff" class="color000 svgShape"></path></symbol><symbol id="e" overflow="visible"><path d="m1.6094-4.1094v0.90625h1.0625v0.73438h-1.0625v1.3594c0 0.14844 0.023437 0.24609 0.078125 0.29688 0.0625 0.054688 0.17969 0.078125 0.35938 0.078125h0.53125v0.73438h-0.875c-0.40625 0-0.69531-0.082031-0.85938-0.25-0.16797-0.16406-0.25-0.45312-0.25-0.85938v-1.3594h-0.51562v-0.73438h0.51562v-0.90625z" fill="#ffffff" class="color000 svgShape"></path></symbol><symbol id="f" overflow="visible"><path d="m2.6719-2.7344v-1.7188h1.0312v4.4531h-1.0312v-0.46875c-0.14844 0.1875-0.30469 0.32812-0.46875 0.42188-0.16797 0.082031-0.36719 0.125-0.59375 0.125-0.38672 0-0.71094-0.15625-0.96875-0.46875-0.25-0.3125-0.375-0.71094-0.375-1.2031 0-0.5 0.125-0.90625 0.375-1.2188 0.25781-0.3125 0.58203-0.46875 0.96875-0.46875 0.22656 0 0.42578 0.046875 0.59375 0.14062 0.16406 0.085937 0.32031 0.21875 0.46875 0.40625zm-0.67188 2.0781c0.21875 0 0.38281-0.078125 0.5-0.23438 0.11328-0.16406 0.17188-0.39844 0.17188-0.70312 0-0.3125-0.058594-0.54688-0.17188-0.70312-0.11719-0.15625-0.28125-0.23438-0.5-0.23438s-0.38672 0.078125-0.5 0.23438c-0.11719 0.15625-0.17188 0.39062-0.17188 0.70312 0 0.30469 0.054687 0.53906 0.17188 0.70312 0.11328 0.15625 0.28125 0.23438 0.5 0.23438z" fill="#ffffff" class="color000 svgShape"></path></symbol><symbol id="g" overflow="visible"><path d="m2.2031-0.65625c0.21875 0 0.38281-0.078125 0.5-0.23438 0.11328-0.16406 0.17188-0.39844 0.17188-0.70312 0-0.3125-0.058594-0.54688-0.17188-0.70312-0.11719-0.15625-0.28125-0.23438-0.5-0.23438s-0.39062 0.085938-0.51562 0.25c-0.11719 0.15625-0.17188 0.38672-0.17188 0.6875 0 0.30469 0.054687 0.53906 0.17188 0.70312 0.125 0.15625 0.29688 0.23438 0.51562 0.23438zm-0.6875-2.0781c0.14453-0.1875 0.30078-0.32031 0.46875-0.40625 0.17578-0.09375 0.375-0.14062 0.59375-0.14062 0.39453 0 0.71875 0.15625 0.96875 0.46875 0.25781 0.3125 0.39062 0.71875 0.39062 1.2188 0 0.49219-0.13281 0.89062-0.39062 1.2031-0.25 0.3125-0.57422 0.46875-0.96875 0.46875-0.21875 0-0.41797-0.042969-0.59375-0.125-0.16797-0.09375-0.32422-0.23438-0.46875-0.42188v0.46875h-1.0312v-4.4531h1.0312z" fill="#ffffff" class="color000 svgShape"></path></symbol><symbol id="h" overflow="visible"><path d="m0.078125-3.2031h1.0156l0.85938 2.1719 0.73438-2.1719h1.0312l-1.3594 3.5c-0.13672 0.36328-0.29297 0.61328-0.46875 0.75-0.17969 0.14453-0.41797 0.21875-0.71875 0.21875h-0.57812v-0.67188h0.3125c0.17578 0 0.30078-0.03125 0.375-0.09375 0.082031-0.054688 0.14453-0.14844 0.1875-0.28125l0.03125-0.09375z" fill="#ffffff" class="color000 svgShape"></path></symbol><symbol id="i" overflow="visible"><path d="m2.1094-2.375c0.22656 0 0.39062-0.039062 0.48438-0.125 0.10156-0.09375 0.15625-0.23828 0.15625-0.4375 0-0.1875-0.054688-0.32031-0.15625-0.40625-0.09375-0.082031-0.25781-0.125-0.48438-0.125h-0.46875v1.0938zm-0.46875 0.76562v1.6094h-1.1094v-4.2656h1.6875c0.5625 0 0.97266 0.09375 1.2344 0.28125 0.25781 0.1875 0.39062 0.48438 0.39062 0.89062 0 0.28125-0.070312 0.51562-0.20312 0.70312-0.13672 0.17969-0.33984 0.30859-0.60938 0.39062 0.14453 0.03125 0.27344 0.10938 0.39062 0.23438 0.125 0.125 0.25 0.30859 0.375 0.54688l0.59375 1.2188h-1.1719l-0.51562-1.0625c-0.10547-0.20703-0.21484-0.34766-0.32812-0.42188-0.10547-0.082031-0.24609-0.125-0.42188-0.125z" fill="#ffffff" class="color000 svgShape"></path></symbol><symbol id="j" overflow="visible"><path d="m0.53125-4.2656h2.9844v0.82812h-1.875v0.79688h1.7656v0.82812h-1.7656v0.98438h1.9375v0.82812h-3.0469z" fill="#ffffff" class="color000 svgShape"></path></symbol><symbol id="k" overflow="visible"><path d="m0.03125-4.2656h1.1094l1.125 3.1406 1.1406-3.1406h1.0938l-1.5781 4.2656h-1.3125z" fill="#ffffff" class="color000 svgShape"></path></symbol><symbol id="b" overflow="visible"><path d="m2.875-2.3281c-0.09375-0.039063-0.1875-0.070313-0.28125-0.09375-0.085938-0.019531-0.16797-0.03125-0.25-0.03125-0.27344 0-0.48047 0.085937-0.625 0.25-0.13672 0.16797-0.20312 0.41406-0.20312 0.73438v1.4688h-1.0312v-3.2031h1.0312v0.53125c0.13281-0.21875 0.28516-0.375 0.45312-0.46875 0.16406-0.09375 0.36719-0.14062 0.60938-0.14062 0.039063 0 0.078125 0.007812 0.10938 0.015625h0.1875z" fill="#ffffff" class="color000 svgShape"></path></symbol><symbol id="m" overflow="visible"><path d="m2.5938-4.4531v0.67188h-0.5625c-0.14844 0-0.25 0.027344-0.3125 0.078125-0.054688 0.054687-0.078125 0.14844-0.078125 0.28125v0.21875h0.875v0.73438h-0.875v2.4688h-1.0156v-2.4688h-0.51562v-0.73438h0.51562v-0.21875c0-0.35156 0.09375-0.61328 0.28125-0.78125 0.19531-0.16406 0.5-0.25 0.90625-0.25z" fill="#ffffff" class="color000 svgShape"></path></symbol><symbol id="n" overflow="visible"><path d="m2.0156-2.5469c-0.23047 0-0.40625 0.085937-0.53125 0.25-0.11719 0.15625-0.17188 0.39062-0.17188 0.70312 0 0.30469 0.054688 0.53906 0.17188 0.70312 0.125 0.15625 0.30078 0.23438 0.53125 0.23438 0.22656 0 0.39844-0.078125 0.51562-0.23438 0.11328-0.16406 0.17188-0.39844 0.17188-0.70312 0-0.3125-0.058594-0.54688-0.17188-0.70312-0.11719-0.16406-0.28906-0.25-0.51562-0.25zm0-0.73438c0.55078 0 0.98438 0.15234 1.2969 0.45312 0.3125 0.29297 0.46875 0.70312 0.46875 1.2344 0 0.52344-0.15625 0.93359-0.46875 1.2344-0.3125 0.29297-0.74609 0.4375-1.2969 0.4375-0.55469 0-0.98438-0.14453-1.2969-0.4375-0.3125-0.30078-0.46875-0.71094-0.46875-1.2344 0-0.53125 0.15625-0.94141 0.46875-1.2344 0.3125-0.30078 0.74219-0.45312 1.2969-0.45312z" fill="#ffffff" class="color000 svgShape"></path></symbol><symbol id="o" overflow="visible"><path d="m3.4688-2.6719c0.125-0.19531 0.27344-0.34766 0.45312-0.45312 0.17578-0.10156 0.375-0.15625 0.59375-0.15625 0.36328 0 0.64062 0.11719 0.82812 0.34375 0.19531 0.23047 0.29688 0.55859 0.29688 0.98438v1.9531h-1.0312v-1.6719-0.0625c0.007813-0.03125 0.015625-0.070313 0.015625-0.125 0-0.22656-0.039062-0.39453-0.10938-0.5-0.0625-0.10156-0.17188-0.15625-0.32812-0.15625-0.1875 0-0.33984 0.085937-0.45312 0.25-0.10547 0.15625-0.15625 0.38672-0.15625 0.6875v1.5781h-1.0312v-1.6719c0-0.35156-0.03125-0.58203-0.09375-0.6875-0.0625-0.10156-0.17188-0.15625-0.32812-0.15625-0.1875 0-0.33984 0.085937-0.45312 0.25-0.10547 0.15625-0.15625 0.38672-0.15625 0.6875v1.5781h-1.0312v-3.2031h1.0312v0.46875c0.125-0.17578 0.26562-0.3125 0.42188-0.40625 0.16406-0.09375 0.34766-0.14062 0.54688-0.14062 0.22656 0 0.42578 0.054688 0.59375 0.15625 0.16406 0.10547 0.29688 0.25781 0.39062 0.45312z" fill="#ffffff" class="color000 svgShape"></path></symbol><symbol id="p" overflow="visible"><path d="m3.7188-1.9531v1.9531h-1.0312v-1.4844c0-0.28125-0.011719-0.47266-0.03125-0.57812-0.011719-0.10156-0.03125-0.17969-0.0625-0.23438-0.03125-0.0625-0.085938-0.11328-0.15625-0.15625-0.074219-0.039063-0.15234-0.0625-0.23438-0.0625-0.21875 0-0.39062 0.085937-0.51562 0.25-0.11719 0.16797-0.17188 0.39844-0.17188 0.6875v1.5781h-1.0312v-4.4531h1.0312v1.7188c0.15625-0.1875 0.31641-0.32031 0.48438-0.40625 0.17578-0.09375 0.36719-0.14062 0.57812-0.14062 0.375 0 0.65625 0.11719 0.84375 0.34375 0.19531 0.23047 0.29688 0.55859 0.29688 0.98438z" fill="#ffffff" class="color000 svgShape"></path></symbol><symbol id="q" overflow="visible"><path d="m0.53125-4.2656h1.2344l1.5625 2.9219v-2.9219h1.0312v4.2656h-1.2188l-1.5625-2.9375v2.9375h-1.0469z" fill="#ffffff" class="color000 svgShape"></path></symbol><symbol id="r" overflow="visible"><path d="m0.45312-1.25v-1.9531h1.0312v0.3125 0.65625 0.53125c0 0.26172 0.003906 0.44922 0.015625 0.5625 0.007812 0.10547 0.035156 0.18359 0.078125 0.23438 0.039063 0.074219 0.09375 0.13281 0.15625 0.17188 0.070313 0.03125 0.14844 0.046875 0.23438 0.046875 0.20703 0 0.375-0.082031 0.5-0.25 0.125-0.16406 0.1875-0.39453 0.1875-0.6875v-1.5781h1.0156v3.2031h-1.0156v-0.46875c-0.15625 0.1875-0.32422 0.32812-0.5 0.42188-0.16797 0.082031-0.35547 0.125-0.5625 0.125-0.375 0-0.66406-0.10938-0.85938-0.32812-0.1875-0.22656-0.28125-0.5625-0.28125-1z" fill="#ffffff" class="color000 svgShape"></path></symbol><symbol id="s" overflow="visible"><path d="m3.7188-1.9531v1.9531h-1.0312v-1.5c0-0.26953-0.011719-0.45703-0.03125-0.5625-0.011719-0.10156-0.03125-0.17969-0.0625-0.23438-0.03125-0.0625-0.085938-0.11328-0.15625-0.15625-0.074219-0.039063-0.15234-0.0625-0.23438-0.0625-0.21875 0-0.39062 0.085937-0.51562 0.25-0.11719 0.16797-0.17188 0.39844-0.17188 0.6875v1.5781h-1.0312v-3.2031h1.0312v0.46875c0.15625-0.1875 0.31641-0.32031 0.48438-0.40625 0.17578-0.09375 0.36719-0.14062 0.57812-0.14062 0.375 0 0.65625 0.11719 0.84375 0.34375 0.19531 0.23047 0.29688 0.55859 0.29688 0.98438z" fill="#ffffff" class="color000 svgShape"></path></symbol><symbol id="t" overflow="visible"><path d="m0.53125-4.2656h1.8281c0.55078 0 0.96875 0.12109 1.25 0.35938 0.28906 0.24219 0.4375 0.58594 0.4375 1.0312 0 0.44922-0.14844 0.79297-0.4375 1.0312-0.28125 0.24219-0.69922 0.35938-1.25 0.35938h-0.71875v1.4844h-1.1094zm1.1094 0.79688v1.1875h0.60938c0.20703 0 0.36719-0.050781 0.48438-0.15625 0.125-0.10156 0.1875-0.25 0.1875-0.4375 0-0.19531-0.0625-0.34375-0.1875-0.4375-0.11719-0.10156-0.27734-0.15625-0.48438-0.15625z" fill="#ffffff" class="color000 svgShape"></path></symbol><symbol id="u" overflow="visible"><path d="m0.48438-3.2031h1.0312v3.1406c0 0.4375-0.10547 0.76562-0.3125 0.98438-0.21094 0.22656-0.50781 0.34375-0.89062 0.34375h-0.5v-0.67188h0.17188c0.19531 0 0.32812-0.046875 0.39062-0.14062 0.070312-0.085937 0.10938-0.25781 0.10938-0.51562zm0-1.25h1.0312v0.84375h-1.0312z" fill="#ffffff" class="color000 svgShape"></path></symbol><symbol id="v" overflow="visible"><path d="m3.0781-3.1094v0.84375c-0.13672-0.09375-0.27734-0.16016-0.42188-0.20312-0.13672-0.050781-0.28125-0.078125-0.4375-0.078125-0.28125 0-0.50781 0.085937-0.67188 0.25-0.15625 0.16797-0.23438 0.40234-0.23438 0.70312 0 0.29297 0.078125 0.52344 0.23438 0.6875 0.16406 0.16797 0.39062 0.25 0.67188 0.25 0.16406 0 0.31641-0.019531 0.45312-0.0625 0.14453-0.050781 0.28125-0.125 0.40625-0.21875v0.84375c-0.15625 0.0625-0.32031 0.10156-0.48438 0.125-0.16797 0.03125-0.33594 0.046875-0.5 0.046875-0.57422 0-1.0273-0.14453-1.3594-0.4375-0.32422-0.30078-0.48438-0.71094-0.48438-1.2344 0-0.53125 0.16016-0.94141 0.48438-1.2344 0.33203-0.30078 0.78516-0.45312 1.3594-0.45312 0.16406 0 0.33203 0.015625 0.5 0.046875 0.16406 0.03125 0.32812 0.074219 0.48438 0.125z" fill="#ffffff" class="color000 svgShape"></path></symbol></defs><path fill-rule="evenodd" d="m700 17.121v420.23h-255.18v70.234h70.234c11.707 0 21.07 9.3633 21.07 21.07 0 11.707-9.3633 21.07-21.07 21.07h-330.1c-11.707 0-21.07-9.3633-21.07-21.07 0-11.707 9.3633-21.07 21.07-21.07h70.234v-70.234h-255.18v-420.23h700z" fill="#ffffff" class="color000 svgShape"></path><use y="567.285" xlink:href="#a"></use><use x="4.297" y="567.285" xlink:href="#b"></use><use x="7.184" y="567.285" xlink:href="#c"></use><use x="11.152" y="567.285" xlink:href="#d"></use><use x="15.102" y="567.285" xlink:href="#e"></use><use x="17.898" y="567.285" xlink:href="#c"></use><use x="21.867" y="567.285" xlink:href="#f"></use><use x="28.094" y="567.285" xlink:href="#g"></use><use x="32.285" y="567.285" xlink:href="#h"></use><use x="38.137" y="567.285" xlink:href="#i"></use><use x="42.645" y="567.285" xlink:href="#j"></use><use x="46.645" y="567.285" xlink:href="#k"></use><use x="51.172" y="567.285" xlink:href="#l"></use><use y="573.141" xlink:href="#m"></use><use x="2.547" y="573.141" xlink:href="#b"></use><use x="5.434" y="573.141" xlink:href="#n"></use><use x="9.453" y="573.141" xlink:href="#o"></use><use x="17.59" y="573.141" xlink:href="#e"></use><use x="20.387" y="573.141" xlink:href="#p"></use><use x="24.555" y="573.141" xlink:href="#c"></use><use x="30.563" y="573.141" xlink:href="#q"></use><use x="35.461" y="573.141" xlink:href="#n"></use><use x="39.48" y="573.141" xlink:href="#r"></use><use x="43.648" y="573.141" xlink:href="#s"></use><use x="49.852" y="573.141" xlink:href="#t"></use><use x="54.141" y="573.141" xlink:href="#b"></use><use x="57.027" y="573.141" xlink:href="#n"></use><use x="61.051" y="573.141" xlink:href="#u"></use><use x="63.055" y="573.141" xlink:href="#c"></use><use x="67.023" y="573.141" xlink:href="#v"></use><use x="70.496" y="573.141" xlink:href="#e"></use></svg></g></svg>